<svg xmlns="http://www.w3.org/2000/svg">
    <defs>
        <symbol id="icon-testimonial-quote" viewBox="0 0 38 39">
            <path opacity="0.4" d="M38 0.535292L37.0206 8.26283C35.0183 8.06469 33.4295 8.461 32.2543 9.45168C31.079 10.3928 30.2738 11.7551 29.8385 13.5384C29.4467 15.2721 29.3815 17.2536 29.6426 19.4826H38V38.5786H21.8729V18.7396C21.8729 12.2504 23.2222 7.34642 25.921 4.02755C28.6197 0.659131 32.646 -0.504956 38 0.535292ZM16.1271 0.535292L15.1477 8.26283C13.1454 8.06469 11.5567 8.461 10.3815 9.45168C9.20616 10.3928 8.40092 11.7551 7.9656 13.5384C7.57391 15.2721 7.50858 17.2536 7.76976 19.4826H16.1271V38.5786H0V18.7396C0 12.2504 1.34937 7.34642 4.04811 4.02755C6.74685 0.659131 10.7732 -0.504956 16.1271 0.535292Z" stroke="none" fill-opacity="0.4"/>
        </symbol>

        <symbol id="icon-check-success" viewBox="0 0 30 30">
            <circle cx="14.9984" cy="14.85" r="14.85" stroke="none" fill="#67C479"/>
            <path d="M9.59863 14.85L14.3236 19.575L21.0736 10.8" fill="none" stroke="white" stroke-width="2.7" stroke-linecap="round"/>
        </symbol>

        <symbol id="icon-x-danger" viewBox="0 0 30 30">
            <circle cx="15.0004" cy="14.95" r="14.85" stroke="none" fill="#EB1F29"/>
            <path d="M10.9512 10.9L19.0512 19" fill="none" stroke="white" stroke-width="2.7" stroke-linecap="round"/>
            <path d="M10.9512 19L19.0512 10.9" fill="none" stroke="white" stroke-width="2.7" stroke-linecap="round"/>
        </symbol>

        <symbol id="icon-close" viewBox="0 0 320 512">
            <path d="M193.9 256L296.5 153.4l21.2-21.2c3.1-3.1 3.1-8.2 0-11.3l-22.6-22.6c-3.1-3.1-8.2-3.1-11.3 0L160 222.1 36.3 98.3c-3.1-3.1-8.2-3.1-11.3 0L2.3 121c-3.1 3.1-3.1 8.2 0 11.3L126.1 256 2.3 379.7c-3.1 3.1-3.1 8.2 0 11.3l22.6 22.6c3.1 3.1 8.2 3.1 11.3 0L160 289.9 262.6 392.5l21.2 21.2c3.1 3.1 8.2 3.1 11.3 0l22.6-22.6c3.1-3.1 3.1-8.2 0-11.3L193.9 256z" stroke="none" />
        </symbol>

        <symbol id="icon-caret-down" viewBox="0 0 24 24">
            <path d="M6 9L12 15L18 9" fill="none" stroke-width="2" stroke-linecap="round"/>
        </symbol>

        <symbol id="icon-arrow-more" viewBox="0 0 24 24">
            <path d="M5 12L19 12" fill="none" stroke-width="2" stroke-linecap="round" stroke-linejoin="round"/>
            <path d="M12 5L19 12L12 19" fill="none" stroke-width="2" stroke-linecap="round" stroke-linejoin="round"/>
        </symbol>

        <symbol id="icon-slider-arrow" viewBox="0 0 38 38">
            <circle cx="19" cy="19" r="19" stroke="none" fill="#E5F1FF"/>
            <path d="M16 11L24 19L16 27" fill="none" stroke="#1A5BC5" stroke-width="2" stroke-linecap="round"/>
        </symbol>

        <symbol id="icon-horizontal-accordion-arrow" viewBox="0 0 30 16">
            <path d="M1 7C0.447715 7 0 7.44772 0 8C0 8.55228 0.447715 9 1 9V7ZM28.7256 8.70711C29.1161 8.31658 29.1161 7.68342 28.7256 7.29289L22.3617 0.928932C21.9711 0.538408 21.338 0.538408 20.9474 0.928932C20.5569 1.31946 20.5569 1.95262 20.9474 2.34315L26.6043 8L20.9474 13.6569C20.5569 14.0474 20.5569 14.6805 20.9474 15.0711C21.338 15.4616 21.9711 15.4616 22.3617 15.0711L28.7256 8.70711ZM1 9L28.0185 9V7L1 7V9Z" stroke="none" />
        </symbol>

        <symbol id="icon-play-btn" viewBox="0 0 62 62">
            <path d="M31 0C13.9056 0 0 13.9069 0 31C0 48.0931 13.9056 62 31 62C48.0944 62 62 48.0931 62 31C62 13.9069 48.0944 0 31 0ZM31 59.4167C15.331 59.4167 2.58329 46.669 2.58329 31C2.58329 15.331 15.331 2.58329 31 2.58329C46.669 2.58329 59.4167 15.331 59.4167 31C59.4167 46.669 46.669 59.4167 31 59.4167Z" stroke="none"/>
            <path d="M43.3238 29.9136L25.2405 18.2886C24.8444 18.0301 24.3323 18.0162 23.9236 18.2407C23.5073 18.4677 23.25 18.9017 23.25 19.3747V42.6247C23.25 43.0977 23.5073 43.5317 23.9236 43.7588C24.1153 43.8635 24.3298 43.9164 24.5417 43.9164C24.7839 43.9164 25.0286 43.8482 25.2405 43.7108L43.3238 32.0858C43.6922 31.8487 43.9167 31.4387 43.9167 30.9997C43.9167 30.5607 43.6922 30.1508 43.3238 29.9136Z" stroke="none"/>
        </symbol>

        <symbol id="icon-social-share-twitter" viewBox="0 0 512 512">
            <path d="M389.2 48h70.6L305.6 224.2 487 464H345L233.7 318.6 106.5 464H35.8L200.7 275.5 26.8 48H172.4L272.9 180.9 389.2 48zM364.4 421.8h39.1L151.1 88h-42L364.4 421.8z"/>
        </symbol>

        <symbol id="icon-social-share-linkedin" viewBox="0 0 448 512">
            <path d="M100.3 448H7.4V148.9h92.9zM53.8 108.1C24.1 108.1 0 83.5 0 53.8a53.8 53.8 0 0 1 107.6 0c0 29.7-24.1 54.3-53.8 54.3zM447.9 448h-92.7V302.4c0-34.7-.7-79.2-48.3-79.2-48.3 0-55.7 37.7-55.7 76.7V448h-92.8V148.9h89.1v40.8h1.3c12.4-23.5 42.7-48.3 87.9-48.3 94 0 111.3 61.9 111.3 142.3V448z"/>
        </symbol>

        <symbol id="icon-social-share-mail" viewBox="0 0 512 512">
            <path d="M64 112c-8.8 0-16 7.2-16 16l0 22.1L220.5 291.7c20.7 17 50.4 17 71.1 0L464 150.1l0-22.1c0-8.8-7.2-16-16-16L64 112zM48 212.2L48 384c0 8.8 7.2 16 16 16l384 0c8.8 0 16-7.2 16-16l0-171.8L322 328.8c-38.4 31.5-93.7 31.5-132 0L48 212.2zM0 128C0 92.7 28.7 64 64 64l384 0c35.3 0 64 28.7 64 64l0 256c0 35.3-28.7 64-64 64L64 448c-35.3 0-64-28.7-64-64L0 128z"/>
        </symbol>

        <symbol id="icon-social-share-link" viewBox="0 0 640 512">
            <path d="M579.8 267.7c56.5-56.5 56.5-148 0-204.5c-50-50-128.8-56.5-186.3-15.4l-1.6 1.1c-14.4 10.3-17.7 30.3-7.4 44.6s30.3 17.7 44.6 7.4l1.6-1.1c32.1-22.9 76-19.3 103.8 8.6c31.5 31.5 31.5 82.5 0 114L422.3 334.8c-31.5 31.5-82.5 31.5-114 0c-27.9-27.9-31.5-71.8-8.6-103.8l1.1-1.6c10.3-14.4 6.9-34.4-7.4-44.6s-34.4-6.9-44.6 7.4l-1.1 1.6C206.5 251.2 213 330 263 380c56.5 56.5 148 56.5 204.5 0L579.8 267.7zM60.2 244.3c-56.5 56.5-56.5 148 0 204.5c50 50 128.8 56.5 186.3 15.4l1.6-1.1c14.4-10.3 17.7-30.3 7.4-44.6s-30.3-17.7-44.6-7.4l-1.6 1.1c-32.1 22.9-76 19.3-103.8-8.6C74 372 74 321 105.5 289.5L217.7 177.2c31.5-31.5 82.5-31.5 114 0c27.9 27.9 31.5 71.8 8.6 103.9l-1.1 1.6c-10.3 14.4-6.9 34.4 7.4 44.6s34.4 6.9 44.6-7.4l1.1-1.6C433.5 260.8 427 182 377 132c-56.5-56.5-148-56.5-204.5 0L60.2 244.3z"/>
        </symbol>

        <symbol id="icon-toc-caret-down" viewBox="0 0 14 9">
            <path d="M2 2L7.00001 7.00001L12 2" fill="none" stroke-width="2.5" stroke-linecap="round"/>
        </symbol>
    </defs>
</svg>
