<svg xmlns="http://www.w3.org/2000/svg">
    <defs>
        <symbol id="icon-splide-arrow-right" viewBox="0 0 20 35">
            <path d="M1 34L19 17.5L1 0.999999" fill="none" stroke-width="2" stroke-linecap="round" stroke-linejoin="round"/>
        </symbol>

        <symbol id="icon-read-more-arrow" viewBox="0 0 22 11">
            <path d="M1 5.5L19.75 5.5" fill="none" stroke-linecap="round" stroke-linejoin="round"/>
            <path d="M15.875 10L20.875 5.5L15.875 1" fill="none" stroke-linecap="round" stroke-linejoin="round"/>
        </symbol>

        <symbol id="icon-accelerate-arrow" viewBox="0 0 34 33">
            <path d="M31.75 0V31H0.75" fill="none" stroke-width="4"/>
            <line x1="31.3964" y1="31.3536" x2="0.396446" y2="0.353553" fill="none"/>
        </symbol>

        <symbol id="icon-accelerate-arrow-v2" viewBox="0 0 34 33">
            <path d="M-1.35505e-06 2.5L31 2.5L31 33.5" fill="none" stroke-width="4"/>
            <line x1="31.3536" y1="2.85355" x2="0.353556" y2="33.8536" fill="none"/>
        </symbol>

        <symbol id="icon-tabs-arrow-down" viewBox="0 0 11 7">
            <path d="M0.75 1L5.25 6L9.75 1" fill="none" stroke-linecap="round" stroke-linejoin="round"/>
        </symbol>

        <symbol id="icon-tabs-arrow-read-more" viewBox="0 0 22 11">
            <path d="M0.75 5.5L19.5 5.5" fill="none" stroke-linecap="round" stroke-linejoin="round"/>
            <path d="M15.625 10L20.625 5.5L15.625 1" fill="none" stroke-linecap="round" stroke-linejoin="round"/>
        </symbol>

        <symbol id="icon-events-calendar" viewBox="0 0 24 24">
            <path d="M5 22C4.45 22 3.97917 21.8042 3.5875 21.4125C3.19583 21.0208 3 20.55 3 20V6C3 5.45 3.19583 4.97917 3.5875 4.5875C3.97917 4.19583 4.45 4 5 4H6V3C6 2.71667 6.09583 2.47917 6.2875 2.2875C6.47917 2.09583 6.71667 2 7 2C7.28333 2 7.52083 2.09583 7.7125 2.2875C7.90417 2.47917 8 2.71667 8 3V4H16V3C16 2.71667 16.0958 2.47917 16.2875 2.2875C16.4792 2.09583 16.7167 2 17 2C17.2833 2 17.5208 2.09583 17.7125 2.2875C17.9042 2.47917 18 2.71667 18 3V4H19C19.55 4 20.0208 4.19583 20.4125 4.5875C20.8042 4.97917 21 5.45 21 6V20C21 20.55 20.8042 21.0208 20.4125 21.4125C20.0208 21.8042 19.55 22 19 22H5ZM5 20H19V10H5V20ZM5 8H19V6H5V8ZM12 14C11.7167 14 11.4792 13.9042 11.2875 13.7125C11.0958 13.5208 11 13.2833 11 13C11 12.7167 11.0958 12.4792 11.2875 12.2875C11.4792 12.0958 11.7167 12 12 12C12.2833 12 12.5208 12.0958 12.7125 12.2875C12.9042 12.4792 13 12.7167 13 13C13 13.2833 12.9042 13.5208 12.7125 13.7125C12.5208 13.9042 12.2833 14 12 14ZM8 14C7.71667 14 7.47917 13.9042 7.2875 13.7125C7.09583 13.5208 7 13.2833 7 13C7 12.7167 7.09583 12.4792 7.2875 12.2875C7.47917 12.0958 7.71667 12 8 12C8.28333 12 8.52083 12.0958 8.7125 12.2875C8.90417 12.4792 9 12.7167 9 13C9 13.2833 8.90417 13.5208 8.7125 13.7125C8.52083 13.9042 8.28333 14 8 14ZM16 14C15.7167 14 15.4792 13.9042 15.2875 13.7125C15.0958 13.5208 15 13.2833 15 13C15 12.7167 15.0958 12.4792 15.2875 12.2875C15.4792 12.0958 15.7167 12 16 12C16.2833 12 16.5208 12.0958 16.7125 12.2875C16.9042 12.4792 17 12.7167 17 13C17 13.2833 16.9042 13.5208 16.7125 13.7125C16.5208 13.9042 16.2833 14 16 14ZM12 18C11.7167 18 11.4792 17.9042 11.2875 17.7125C11.0958 17.5208 11 17.2833 11 17C11 16.7167 11.0958 16.4792 11.2875 16.2875C11.4792 16.0958 11.7167 16 12 16C12.2833 16 12.5208 16.0958 12.7125 16.2875C12.9042 16.4792 13 16.7167 13 17C13 17.2833 12.9042 17.5208 12.7125 17.7125C12.5208 17.9042 12.2833 18 12 18ZM8 18C7.71667 18 7.47917 17.9042 7.2875 17.7125C7.09583 17.5208 7 17.2833 7 17C7 16.7167 7.09583 16.4792 7.2875 16.2875C7.47917 16.0958 7.71667 16 8 16C8.28333 16 8.52083 16.0958 8.7125 16.2875C8.90417 16.4792 9 16.7167 9 17C9 17.2833 8.90417 17.5208 8.7125 17.7125C8.52083 17.9042 8.28333 18 8 18ZM16 18C15.7167 18 15.4792 17.9042 15.2875 17.7125C15.0958 17.5208 15 17.2833 15 17C15 16.7167 15.0958 16.4792 15.2875 16.2875C15.4792 16.0958 15.7167 16 16 16C16.2833 16 16.5208 16.0958 16.7125 16.2875C16.9042 16.4792 17 16.7167 17 17C17 17.2833 16.9042 17.5208 16.7125 17.7125C16.5208 17.9042 16.2833 18 16 18Z" stroke="none"/>
        </symbol>

        <symbol id="icon-events-map-marker" viewBox="0 0 24 24">
            <path d="M12 12C12.55 12 13.0208 11.8042 13.4125 11.4125C13.8042 11.0208 14 10.55 14 10C14 9.45 13.8042 8.97917 13.4125 8.5875C13.0208 8.19583 12.55 8 12 8C11.45 8 10.9792 8.19583 10.5875 8.5875C10.1958 8.97917 10 9.45 10 10C10 10.55 10.1958 11.0208 10.5875 11.4125C10.9792 11.8042 11.45 12 12 12ZM12 19.35C14.0333 17.4833 15.5417 15.7875 16.525 14.2625C17.5083 12.7375 18 11.3833 18 10.2C18 8.38333 17.4208 6.89583 16.2625 5.7375C15.1042 4.57917 13.6833 4 12 4C10.3167 4 8.89583 4.57917 7.7375 5.7375C6.57917 6.89583 6 8.38333 6 10.2C6 11.3833 6.49167 12.7375 7.475 14.2625C8.45833 15.7875 9.96667 17.4833 12 19.35ZM12 22C9.31667 19.7167 7.3125 17.5958 5.9875 15.6375C4.6625 13.6792 4 11.8667 4 10.2C4 7.7 4.80417 5.70833 6.4125 4.225C8.02083 2.74167 9.88333 2 12 2C14.1167 2 15.9792 2.74167 17.5875 4.225C19.1958 5.70833 20 7.7 20 10.2C20 11.8667 19.3375 13.6792 18.0125 15.6375C16.6875 17.5958 14.6833 19.7167 12 22Z" stroke="none"/>
        </symbol>

        <symbol id="icon-search" viewBox="0 0 24 24">
            <path d="M9.5 16C7.68333 16 6.14583 15.3708 4.8875 14.1125C3.62917 12.8542 3 11.3167 3 9.5C3 7.68333 3.62917 6.14583 4.8875 4.8875C6.14583 3.62917 7.68333 3 9.5 3C11.3167 3 12.8542 3.62917 14.1125 4.8875C15.3708 6.14583 16 7.68333 16 9.5C16 10.2333 15.8833 10.925 15.65 11.575C15.4167 12.225 15.1 12.8 14.7 13.3L20.3 18.9C20.4833 19.0833 20.575 19.3167 20.575 19.6C20.575 19.8833 20.4833 20.1167 20.3 20.3C20.1167 20.4833 19.8833 20.575 19.6 20.575C19.3167 20.575 19.0833 20.4833 18.9 20.3L13.3 14.7C12.8 15.1 12.225 15.4167 11.575 15.65C10.925 15.8833 10.2333 16 9.5 16ZM9.5 14C10.75 14 11.8125 13.5625 12.6875 12.6875C13.5625 11.8125 14 10.75 14 9.5C14 8.25 13.5625 7.1875 12.6875 6.3125C11.8125 5.4375 10.75 5 9.5 5C8.25 5 7.1875 5.4375 6.3125 6.3125C5.4375 7.1875 5 8.25 5 9.5C5 10.75 5.4375 11.8125 6.3125 12.6875C7.1875 13.5625 8.25 14 9.5 14Z" stroke="none"/>
        </symbol>

        <symbol id="icon-ajax-more" viewBox="0 0 51 50">
            <path fill-rule="evenodd" clip-rule="evenodd" d="M25.5 -1.09278e-06C11.6929 -1.69631e-06 0.500002 11.1929 0.500001 25C0.5 38.8071 11.6929 50 25.5 50C39.3071 50 50.5 38.8071 50.5 25C50.5 11.1929 39.3071 -4.89256e-07 25.5 -1.09278e-06Z" stroke="none"/>
            <path d="M15.5 20L24.7789 30L35.5 20" fill="none" stroke="white" stroke-width="2" stroke-linecap="round"/>
        </symbol>

        <symbol id="icon-modal-play-btn" viewBox="0 0 62 62">
            <path d="M31 0C13.9056 0 0 13.9069 0 31C0 48.0931 13.9056 62 31 62C48.0944 62 62 48.0931 62 31C62 13.9069 48.0944 0 31 0ZM31 59.4167C15.331 59.4167 2.58329 46.669 2.58329 31C2.58329 15.331 15.331 2.58329 31 2.58329C46.669 2.58329 59.4167 15.331 59.4167 31C59.4167 46.669 46.669 59.4167 31 59.4167Z" stroke="none"/>
            <path d="M43.3238 29.9136L25.2405 18.2886C24.8444 18.0301 24.3323 18.0162 23.9236 18.2407C23.5073 18.4677 23.25 18.9017 23.25 19.3747V42.6247C23.25 43.0977 23.5073 43.5317 23.9236 43.7588C24.1153 43.8635 24.3298 43.9164 24.5417 43.9164C24.7839 43.9164 25.0286 43.8482 25.2405 43.7108L43.3238 32.0858C43.6922 31.8487 43.9167 31.4387 43.9167 30.9997C43.9167 30.5607 43.6922 30.1508 43.3238 29.9136Z" stroke="none"/>
        </symbol>

        <symbol id="icon-dialog-close" viewBox="0 0 320 512">
            <path d="M193.9 256L296.5 153.4l21.2-21.2c3.1-3.1 3.1-8.2 0-11.3l-22.6-22.6c-3.1-3.1-8.2-3.1-11.3 0L160 222.1 36.3 98.3c-3.1-3.1-8.2-3.1-11.3 0L2.3 121c-3.1 3.1-3.1 8.2 0 11.3L126.1 256 2.3 379.7c-3.1 3.1-3.1 8.2 0 11.3l22.6 22.6c3.1 3.1 8.2 3.1 11.3 0L160 289.9 262.6 392.5l21.2 21.2c3.1 3.1 8.2 3.1 11.3 0l22.6-22.6c3.1-3.1 3.1-8.2 0-11.3L193.9 256z" stroke="none" />
        </symbol>

        <symbol id="icon-pagination-arrow-right" viewBox="0 0 16 16">
            <path fill-rule="evenodd" clip-rule="evenodd" d="M5.76748 11.8159C5.5378 11.577 5.54525 11.1972 5.78411 10.9675L8.93431 8L5.78411 5.0325C5.54525 4.80282 5.5378 4.423 5.76748 4.18413C5.99715 3.94527 6.37698 3.93782 6.61584 4.1675L10.2158 7.5675C10.3335 7.68062 10.4 7.83679 10.4 8C10.4 8.16321 10.3335 8.31938 10.2158 8.4325L6.61584 11.8325C6.37698 12.0622 5.99715 12.0547 5.76748 11.8159Z" stroke="none"/>
        </symbol>

        <symbol id="icon-index-arrow" viewBox="0 0 22 11">
            <path d="M1.25 5.5L20 5.5" fill="none" stroke-linecap="round" stroke-linejoin="round"/>
            <path d="M16 10L21 5.5L16 1" fill="none" stroke-linecap="round" stroke-linejoin="round"/>
        </symbol>

        <symbol id="icon-location-marker" viewBox="0 0 18 18">
            <path d="M9 9C9.4125 9 9.76563 8.85313 10.0594 8.55938C10.3531 8.26563 10.5 7.9125 10.5 7.5C10.5 7.0875 10.3531 6.73438 10.0594 6.44063C9.76563 6.14688 9.4125 6 9 6C8.5875 6 8.23438 6.14688 7.94063 6.44063C7.64688 6.73438 7.5 7.0875 7.5 7.5C7.5 7.9125 7.64688 8.26563 7.94063 8.55938C8.23438 8.85313 8.5875 9 9 9ZM9 14.5125C10.525 13.1125 11.6562 11.8406 12.3938 10.6969C13.1313 9.55313 13.5 8.5375 13.5 7.65C13.5 6.2875 13.0656 5.17188 12.1969 4.30313C11.3281 3.43438 10.2625 3 9 3C7.7375 3 6.67188 3.43438 5.80313 4.30313C4.93438 5.17188 4.5 6.2875 4.5 7.65C4.5 8.5375 4.86875 9.55313 5.60625 10.6969C6.34375 11.8406 7.475 13.1125 9 14.5125ZM9 16.5C6.9875 14.7875 5.48438 13.1969 4.49063 11.7281C3.49688 10.2594 3 8.9 3 7.65C3 5.775 3.60312 4.28125 4.80938 3.16875C6.01563 2.05625 7.4125 1.5 9 1.5C10.5875 1.5 11.9844 2.05625 13.1906 3.16875C14.3969 4.28125 15 5.775 15 7.65C15 8.9 14.5031 10.2594 13.5094 11.7281C12.5156 13.1969 11.0125 14.7875 9 16.5Z" stroke="none"/>
        </symbol>

        <symbol id="icon-filter-arrow-down" viewBox="0 0 24 25">
            <path d="M11.9998 15.4758C11.8665 15.4758 11.7415 15.4549 11.6248 15.4133C11.5081 15.3716 11.3998 15.3008 11.2998 15.2008L6.6998 10.6008C6.51647 10.4174 6.4248 10.1841 6.4248 9.90078C6.4248 9.61745 6.51647 9.38411 6.6998 9.20078C6.88314 9.01745 7.11647 8.92578 7.3998 8.92578C7.68314 8.92578 7.91647 9.01745 8.0998 9.20078L11.9998 13.1008L15.8998 9.20078C16.0831 9.01745 16.3165 8.92578 16.5998 8.92578C16.8831 8.92578 17.1165 9.01745 17.2998 9.20078C17.4831 9.38411 17.5748 9.61745 17.5748 9.90078C17.5748 10.1841 17.4831 10.4174 17.2998 10.6008L12.6998 15.2008C12.5998 15.3008 12.4915 15.3716 12.3748 15.4133C12.2581 15.4549 12.1331 15.4758 11.9998 15.4758Z" stroke="none"/>
        </symbol>

        <symbol id="icon-arrow-up-lines" viewBox="0 0 33 34" fill="transparent">
            <path d="M-1.35505e-06 2L31 2L31 33" stroke="currentColor" stroke-width="4"/>
            <line x1="31.3536" y1="2.35355" x2="0.353556" y2="33.3536" stroke="currentColor"/>
        </symbol>

        <symbol id="icon-check-circle" viewBox="0 0 30 30" fill="none">
            <circle cx="15" cy="15" r="15" fill="white"/>
            <path fill-rule="evenodd" clip-rule="evenodd" d="M19.7811 11.6178C19.9215 11.7584 20.0004 11.949 20.0004 12.1478C20.0004 12.3465 19.9215 12.5372 19.7811 12.6778L13.6841 18.7748C13.6137 18.8451 13.53 18.9007 13.4379 18.9384C13.3458 18.976 13.2472 18.995 13.1477 18.9942C13.0482 18.9933 12.9499 18.9727 12.8584 18.9335C12.767 18.8943 12.6843 18.8373 12.6151 18.7658L10.2121 16.2818C10.075 16.1386 10.0002 15.947 10.004 15.7488C10.0079 15.5506 10.09 15.362 10.2324 15.2242C10.3748 15.0864 10.5661 15.0106 10.7642 15.0133C10.9624 15.016 11.1515 15.0971 11.2901 15.2388L13.1631 17.1748L18.7211 11.6178C18.8617 11.4773 19.0523 11.3984 19.2511 11.3984C19.4498 11.3984 19.6404 11.4773 19.7811 11.6178Z" fill="#00B3F2"/>
        </symbol>



    </defs>
</svg>
