<svg xmlns="http://www.w3.org/2000/svg">
    <defs>
        <symbol id="icon-social-twitter" viewBox="0 0 22 21">
            <path d="M17.3263 0.903809H20.6998L13.3297 9.3273L22 20.7898H15.2112L9.89404 13.8378L3.80995 20.7898H0.434432L8.31743 11.7799L0 0.903809H6.96111L11.7674 7.25814L17.3263 0.903809ZM16.1423 18.7706H18.0116L5.94539 2.81694H3.93946L16.1423 18.7706Z" stroke="none"/>
        </symbol>

        <symbol id="icon-social-facebook" viewBox="0 0 24 24">
            <path d="M12 0C5.37264 0 0 5.37264 0 12C0 17.6275 3.87456 22.3498 9.10128 23.6467V15.6672H6.62688V12H9.10128V10.4198C9.10128 6.33552 10.9498 4.4424 14.9597 4.4424C15.72 4.4424 17.0318 4.59168 17.5685 4.74048V8.06448C17.2853 8.03472 16.7933 8.01984 16.1822 8.01984C14.2147 8.01984 13.4544 8.76528 13.4544 10.703V12H17.3741L16.7006 15.6672H13.4544V23.9122C19.3963 23.1946 24.0005 18.1354 24.0005 12C24 5.37264 18.6274 0 12 0Z" stroke="none"/>
        </symbol>

        <symbol id="icon-social-linkedin" viewBox="0 0 24 24">
            <path d="M22.2234 0H1.77187C0.792187 0 0 0.773438 0 1.72969V22.2656C0 23.2219 0.792187 24 1.77187 24H22.2234C23.2031 24 24 23.2219 24 22.2703V1.72969C24 0.773438 23.2031 0 22.2234 0ZM7.12031 20.4516H3.55781V8.99531H7.12031V20.4516ZM5.33906 7.43438C4.19531 7.43438 3.27188 6.51094 3.27188 5.37187C3.27188 4.23281 4.19531 3.30937 5.33906 3.30937C6.47813 3.30937 7.40156 4.23281 7.40156 5.37187C7.40156 6.50625 6.47813 7.43438 5.33906 7.43438ZM20.4516 20.4516H16.8937V14.8828C16.8937 13.5562 16.8703 11.8453 15.0422 11.8453C13.1906 11.8453 12.9094 13.2937 12.9094 14.7891V20.4516H9.35625V8.99531H12.7687V10.5609H12.8156C13.2891 9.66094 14.4516 8.70938 16.1813 8.70938C19.7859 8.70938 20.4516 11.0813 20.4516 14.1656V20.4516Z" stroke="none"/>
        </symbol>

        <symbol id="icon-social-youtube" viewBox="0 0 24 24">
            <path d="M23.7609 7.1998C23.7609 7.1998 23.5266 5.54512 22.8047 4.81855C21.8906 3.8623 20.8688 3.85762 20.4 3.80137C17.0438 3.55762 12.0047 3.55762 12.0047 3.55762H11.9953C11.9953 3.55762 6.95625 3.55762 3.6 3.80137C3.13125 3.85762 2.10938 3.8623 1.19531 4.81855C0.473438 5.54512 0.24375 7.1998 0.24375 7.1998C0.24375 7.1998 0 9.14512 0 11.0857V12.9045C0 14.8451 0.239062 16.7904 0.239062 16.7904C0.239062 16.7904 0.473437 18.4451 1.19062 19.1717C2.10469 20.1279 3.30469 20.0951 3.83906 20.1982C5.76094 20.3811 12 20.4373 12 20.4373C12 20.4373 17.0438 20.4279 20.4 20.1889C20.8688 20.1326 21.8906 20.1279 22.8047 19.1717C23.5266 18.4451 23.7609 16.7904 23.7609 16.7904C23.7609 16.7904 24 14.8498 24 12.9045V11.0857C24 9.14512 23.7609 7.1998 23.7609 7.1998ZM9.52031 15.1123V8.36699L16.0031 11.7514L9.52031 15.1123Z" stroke="none"/>
        </symbol>

        <symbol id="icon-social-mail" viewBox="0 0 24 24">
            <path d="M20 8L12 13L4 8V6L12 11L20 6M20 4H4C2.89 4 2 4.89 2 6V18C2 18.5304 2.21071 19.0391 2.58579 19.4142C2.96086 19.7893 3.46957 20 4 20H20C20.5304 20 21.0391 19.7893 21.4142 19.4142C21.7893 19.0391 22 18.5304 22 18V6C22 5.46957 21.7893 4.96086 21.4142 4.58579C21.0391 4.21071 20.5304 4 20 4Z" stroke="none"/>
        </symbol>
    </defs>
</svg>
