<svg xmlns="http://www.w3.org/2000/svg">
    <defs>
        <symbol id="icon-tabs-grid" viewBox="0 0 18 19">
            <path d="M1 10.7915H7C7.26522 10.7915 7.51957 10.6861 7.70711 10.4986C7.89464 10.3111 8 10.0567 8 9.7915V1.7915C8 1.52629 7.89464 1.27193 7.70711 1.0844C7.51957 0.896861 7.26522 0.791504 7 0.791504H1C0.734784 0.791504 0.48043 0.896861 0.292893 1.0844C0.105357 1.27193 0 1.52629 0 1.7915V9.7915C0 10.0567 0.105357 10.3111 0.292893 10.4986C0.48043 10.6861 0.734784 10.7915 1 10.7915ZM0 17.7915C0 18.0567 0.105357 18.3111 0.292893 18.4986C0.48043 18.6861 0.734784 18.7915 1 18.7915H7C7.26522 18.7915 7.51957 18.6861 7.70711 18.4986C7.89464 18.3111 8 18.0567 8 17.7915V13.7915C8 13.5263 7.89464 13.2719 7.70711 13.0844C7.51957 12.8969 7.26522 12.7915 7 12.7915H1C0.734784 12.7915 0.48043 12.8969 0.292893 13.0844C0.105357 13.2719 0 13.5263 0 13.7915V17.7915ZM10 17.7915C10 18.0567 10.1054 18.3111 10.2929 18.4986C10.4804 18.6861 10.7348 18.7915 11 18.7915H17C17.2652 18.7915 17.5196 18.6861 17.7071 18.4986C17.8946 18.3111 18 18.0567 18 17.7915V10.7915C18 10.5263 17.8946 10.2719 17.7071 10.0844C17.5196 9.89686 17.2652 9.7915 17 9.7915H11C10.7348 9.7915 10.4804 9.89686 10.2929 10.0844C10.1054 10.2719 10 10.5263 10 10.7915V17.7915ZM11 7.7915H17C17.2652 7.7915 17.5196 7.68615 17.7071 7.49861C17.8946 7.31107 18 7.05672 18 6.7915V1.7915C18 1.52629 17.8946 1.27193 17.7071 1.0844C17.5196 0.896861 17.2652 0.791504 17 0.791504H11C10.7348 0.791504 10.4804 0.896861 10.2929 1.0844C10.1054 1.27193 10 1.52629 10 1.7915V6.7915C10 7.05672 10.1054 7.31107 10.2929 7.49861C10.4804 7.68615 10.7348 7.7915 11 7.7915Z" stroke="none"/>
        </symbol>

        <symbol id="icon-tabs-warning" viewBox="0 0 24 24">
            <path d="M1 21L12 2L23 21H1ZM4.45 19H19.55L12 6L4.45 19ZM12 18C12.2833 18 12.5208 17.9042 12.7125 17.7125C12.9042 17.5208 13 17.2833 13 17C13 16.7167 12.9042 16.4792 12.7125 16.2875C12.5208 16.0958 12.2833 16 12 16C11.7167 16 11.4792 16.0958 11.2875 16.2875C11.0958 16.4792 11 16.7167 11 17C11 17.2833 11.0958 17.5208 11.2875 17.7125C11.4792 17.9042 11.7167 18 12 18ZM11 15H13V10H11V15Z" stroke="none"/>
        </symbol>

        <symbol id="icon-tabs-compliance" viewBox="0 0 19 20">
            <path d="M0.78125 19.7917C0.349778 19.7917 0 19.4419 0 19.0104C0 18.5789 0.349778 18.2292 0.78125 18.2292H11.7188C12.1502 18.2292 12.5 18.5789 12.5 19.0104C12.5 19.4419 12.1502 19.7917 11.7188 19.7917H0.78125ZM6.48836 13.5637C6.09783 13.9543 5.46467 13.9543 5.07414 13.5637L0.697218 9.1868C0.310577 8.80016 0.306172 8.17466 0.687329 7.78262L1.11911 7.33849C1.50672 6.93982 2.1451 6.93389 2.54004 7.3253L6.94279 11.6887C7.3363 12.0787 7.33773 12.7144 6.94596 13.1061L6.48836 13.5637ZM13.1061 6.94596C12.7144 7.33773 12.0787 7.3363 11.6887 6.94279L7.3253 2.54004C6.93389 2.1451 6.93982 1.50672 7.33849 1.11911L7.78262 0.687329C8.17466 0.306172 8.80016 0.310577 9.1868 0.697218L13.5637 5.07414C13.9543 5.46467 13.9543 6.09783 13.5637 6.48836L13.1061 6.94596ZM18.2031 18.2031C17.9011 18.5052 17.4114 18.5052 17.1094 18.2031L4.24479 5.33854C3.94276 5.03651 3.94276 4.54682 4.24479 4.24479C4.54682 3.94276 5.03651 3.94276 5.33854 4.24479L18.2031 17.1094C18.5052 17.4114 18.5052 17.9011 18.2031 18.2031Z" stroke="none"/>
        </symbol>

        <symbol id="icon-tabs-policy" viewBox="0 0 24 24">
            <path d="M12 22C9.68333 21.4167 7.77083 20.0875 6.2625 18.0125C4.75417 15.9375 4 13.6333 4 11.1V5L12 2L20 5V11.1C20 12.5167 19.7583 13.8792 19.275 15.1875C18.7917 16.4958 18.1 17.65 17.2 18.65L14 15.45C13.7 15.6333 13.3792 15.7708 13.0375 15.8625C12.6958 15.9542 12.35 16 12 16C10.9 16 9.95833 15.6083 9.175 14.825C8.39167 14.0417 8 13.1 8 12C8 10.9 8.39167 9.95833 9.175 9.175C9.95833 8.39167 10.9 8 12 8C13.1 8 14.0417 8.39167 14.825 9.175C15.6083 9.95833 16 10.9 16 12C16 12.3667 15.9542 12.7208 15.8625 13.0625C15.7708 13.4042 15.6333 13.7333 15.45 14.05L16.95 15.55C17.2833 14.8667 17.5417 14.15 17.725 13.4C17.9083 12.65 18 11.8833 18 11.1V6.375L12 4.125L6 6.375V11.1C6 13.1167 6.56667 14.95 7.7 16.6C8.83333 18.25 10.2667 19.35 12 19.9C12.4333 19.7667 12.8458 19.5958 13.2375 19.3875C13.6292 19.1792 14.0167 18.9333 14.4 18.65L15.8 20.05C15.25 20.5 14.6542 20.8917 14.0125 21.225C13.3708 21.5583 12.7 21.8167 12 22ZM12 14C12.55 14 13.0208 13.8042 13.4125 13.4125C13.8042 13.0208 14 12.55 14 12C14 11.45 13.8042 10.9792 13.4125 10.5875C13.0208 10.1958 12.55 10 12 10C11.45 10 10.9792 10.1958 10.5875 10.5875C10.1958 10.9792 10 11.45 10 12C10 12.55 10.1958 13.0208 10.5875 13.4125C10.9792 13.8042 11.45 14 12 14Z" stroke="none"/>
        </symbol>

        <symbol id="icon-tabs-document" viewBox="0 0 24 24">
            <path d="M8 18H16V16H8V18ZM8 14H16V12H8V14ZM6 22C5.45 22 4.97917 21.8042 4.5875 21.4125C4.19583 21.0208 4 20.55 4 20V4C4 3.45 4.19583 2.97917 4.5875 2.5875C4.97917 2.19583 5.45 2 6 2H14L20 8V20C20 20.55 19.8042 21.0208 19.4125 21.4125C19.0208 21.8042 18.55 22 18 22H6ZM13 9V4H6V20H18V9H13Z" stroke="none"/>
        </symbol>

        <symbol id="icon-tabs-stats" viewBox="0 0 17 18">
            <path d="M14.1923 0C13.2364 0 12.4615 0.774892 12.4615 1.73077V16.2692C12.4615 17.2251 13.2364 18 14.1923 18H14.8846C15.8405 18 16.6154 17.2251 16.6154 16.2692V1.73077C16.6154 0.774892 15.8405 0 14.8846 0H14.1923Z" stroke="none"/>
            <path d="M6.23077 5.88462C6.23077 4.92874 7.00566 4.15385 7.96154 4.15385H8.65385C9.60972 4.15385 10.3846 4.92874 10.3846 5.88462V16.2692C10.3846 17.2251 9.60972 18 8.65385 18H7.96154C7.00566 18 6.23077 17.2251 6.23077 16.2692V5.88462Z" stroke="none"/>
            <path d="M0 10.0385C0 9.08258 0.774892 8.30769 1.73077 8.30769H2.42308C3.37895 8.30769 4.15385 9.08258 4.15385 10.0385V16.2692C4.15385 17.2251 3.37895 18 2.42308 18H1.73077C0.774892 18 0 17.2251 0 16.2692V10.0385Z" stroke="none"/>
        </symbol>

        <symbol id="icon-tabs-business" viewBox="0 0 24 24">
            <path d="M4 21C3.45 21 2.97917 20.8042 2.5875 20.4125C2.19583 20.0208 2 19.55 2 19V8C2 7.45 2.19583 6.97917 2.5875 6.5875C2.97917 6.19583 3.45 6 4 6H8V4C8 3.45 8.19583 2.97917 8.5875 2.5875C8.97917 2.19583 9.45 2 10 2H14C14.55 2 15.0208 2.19583 15.4125 2.5875C15.8042 2.97917 16 3.45 16 4V6H20C20.55 6 21.0208 6.19583 21.4125 6.5875C21.8042 6.97917 22 7.45 22 8V19C22 19.55 21.8042 20.0208 21.4125 20.4125C21.0208 20.8042 20.55 21 20 21H4ZM10 6H14V4H10V6ZM20 15H15V17H9V15H4V19H20V15ZM11 15H13V13H11V15ZM4 13H9V11H15V13H20V8H4V13Z" stroke="none"/>
        </symbol>
    </defs>
</svg>
