<?xml version="1.0" encoding="UTF-8"?>
<svg xmlns="http://www.w3.org/2000/svg" style="display: none;">

  <!-- Arrow Right -->

  <symbol id="icon-arrow-right" viewBox="0 0 14 10">
    <path fill-rule="evenodd" clip-rule="evenodd" d="M12.0441 4.59009H0.75H12.0441Z" fill="currentColor"/>
    <path d="M12.0441 4.59009H0.75" stroke="currentColor" stroke-width="1.5" stroke-linecap="square"/>
    <path fill-rule="evenodd" clip-rule="evenodd" d="M9.21875 8.1195L12.7482 4.59009L9.21875 8.1195Z" fill="currentColor"/>
    <path d="M9.21875 8.1195L12.7482 4.59009" stroke="currentColor" stroke-width="1.5" stroke-linecap="square"/>
    <path fill-rule="evenodd" clip-rule="evenodd" d="M9.21875 1.06067L12.7482 4.59008L9.21875 1.06067Z" fill="currentColor"/>
    <path d="M9.21875 1.06067L12.7482 4.59008" stroke="currentColor" stroke-width="1.5" stroke-linecap="square"/>
  </symbol>

  <!-- Arrow Right Simple -->
  <symbol id="icon-arrow-right-simple" viewBox="0 0 16 16">
    <path d="M6 3l5 5-5 5" stroke="currentColor" stroke-width="2" fill="none" stroke-linecap="round" stroke-linejoin="round"/>
  </symbol>

  <!-- Arrow Right Circle -->
  <symbol id="icon-arrow-right-circle" viewBox="0 0 24 24">
    <circle cx="12" cy="12" r="10" stroke="currentColor" stroke-width="2" fill="none"/>
    <path d="M12 8l4 4-4 4M8 12h8" stroke="currentColor" stroke-width="2" fill="none" stroke-linecap="round" stroke-linejoin="round"/>
  </symbol>

  <!-- Arrow Left -->
  <symbol id="icon-arrow-left" viewBox="0 0 24 24">
    <path d="M15.41 16.59L10.83 12L15.41 7.41L14 6L8 12L14 18L15.41 16.59Z" fill="currentColor"/>
  </symbol>

  <!-- Arrow Left Simple -->
  <symbol id="icon-arrow-left-simple" viewBox="0 0 16 16">
    <path d="M10 3l-5 5 5 5" stroke="currentColor" stroke-width="2" fill="none" stroke-linecap="round" stroke-linejoin="round"/>
  </symbol>

  <!-- Arrow Up -->
  <symbol id="icon-arrow-up" viewBox="0 0 24 24">
    <path d="M16.59 15.41L12 10.83L7.41 15.41L6 14L12 8L18 14L16.59 15.41Z" fill="currentColor"/>
  </symbol>

  <!-- Arrow Down -->
  <symbol id="icon-arrow-down" viewBox="0 0 24 24">
    <path d="M7.41 8.59L12 13.17L16.59 8.59L18 10L12 16L6 10L7.41 8.59Z" fill="currentColor"/>
  </symbol>

  <!-- Chevron Down -->
  <symbol id="icon-chevron-down" viewBox="0 0 24 24">
    <path d="M6 9l6 6 6-6" stroke="currentColor" stroke-width="2" fill="none" stroke-linecap="round" stroke-linejoin="round"/>
  </symbol>

  <!-- Chevron Up -->
  <symbol id="icon-chevron-up" viewBox="0 0 24 24">
    <path d="M18 15l-6-6-6 6" stroke="currentColor" stroke-width="2" fill="none" stroke-linecap="round" stroke-linejoin="round"/>
  </symbol>

  <!-- Chevron Right -->
  <symbol id="icon-chevron-right" viewBox="0 0 24 24">
    <path d="M9 18l6-6-6-6" stroke="currentColor" stroke-width="2" fill="none" stroke-linecap="round" stroke-linejoin="round"/>
  </symbol>

  <!-- Chevron Left -->
  <symbol id="icon-chevron-left" viewBox="0 0 24 24">
    <path d="M15 18l-6-6 6-6" stroke="currentColor" stroke-width="2" fill="none" stroke-linecap="round" stroke-linejoin="round"/>
  </symbol>

  <!-- External Link Arrow -->
  <symbol id="icon-external-link" viewBox="0 0 24 24">
    <path d="M18 13v6a2 2 0 01-2 2H5a2 2 0 01-2-2V8a2 2 0 012-2h6M15 3h6v6M10 14L21 3" stroke="currentColor" stroke-width="2" fill="none" stroke-linecap="round" stroke-linejoin="round"/>
  </symbol>

  <!-- Long Arrow Right -->
  <symbol id="icon-long-arrow-right" viewBox="0 0 24 24">
    <path d="M5 12h14M12 5l7 7-7 7" stroke="currentColor" stroke-width="2" fill="none" stroke-linecap="round" stroke-linejoin="round"/>
  </symbol>

  <!-- Long Arrow Left -->
  <symbol id="icon-long-arrow-left" viewBox="0 0 24 24">
    <path d="M19 12H5M12 19l-7-7 7-7" stroke="currentColor" stroke-width="2" fill="none" stroke-linecap="round" stroke-linejoin="round"/>
  </symbol>

  <!-- Arrow Right Bold -->
  <symbol id="icon-arrow-right-bold" viewBox="0 0 16 16">
    <path d="M6.5 2L12 7.5L6.5 13L5.5 12L10 7.5L5.5 3L6.5 2Z" fill="currentColor"/>
  </symbol>

  <!-- Double Arrow Right -->
  <symbol id="icon-double-arrow-right" viewBox="0 0 24 24">
    <path d="M5 12l6-6v12l-6-6zm7 0l6-6v12l-6-6z" fill="currentColor"/>
  </symbol>

  <!-- Arrow Right Curved -->
  <symbol id="icon-arrow-right-curved" viewBox="0 0 24 24">
    <path d="M3 12c0-4.97 4.03-9 9-9s9 4.03 9 9M21 12l-3-3M21 12l-3 3" stroke="currentColor" stroke-width="2" fill="none" stroke-linecap="round" stroke-linejoin="round"/>
  </symbol>

  <!-- Play Arrow -->
  <symbol id="icon-play-arrow" viewBox="0 0 24 24">
    <path d="M8 5v14l11-7L8 5z" fill="currentColor"/>
  </symbol>

  <!-- Back Arrow -->
  <symbol id="icon-back-arrow" viewBox="0 0 24 24">
    <path d="M19 12H5M12 19l-7-7 7-7" stroke="currentColor" stroke-width="2" fill="none" stroke-linecap="round" stroke-linejoin="round"/>
  </symbol>

  <!-- Forward Arrow -->
  <symbol id="icon-forward-arrow" viewBox="0 0 24 24">
    <path d="M5 12h14M12 5l7 7-7 7" stroke="currentColor" stroke-width="2" fill="none" stroke-linecap="round" stroke-linejoin="round"/>
  </symbol>

  <symbol id="icon-list-check" viewBox="0 0 69.281 52.028">
    <path id="check" d="M65.236,3.044,20.2,48.072,4.137,32.017.043,36.111,18.151,54.22a2.893,2.893,0,0,0,2.046.852,2.852,2.852,0,0,0,2.046-.852L69.324,7.138,65.23,3.044Z" transform="translate(-0.043 -3.044)" fill="#68b32f"/>
  </symbol>

  <symbol id="icon-map-marker" viewBox="0 0 48.443 52.843">
    <g id="map-marker-check" transform="translate(-1)">
      <path id="Pfad_84" data-name="Pfad 84" d="M22.615,12.807a8.807,8.807,0,1,0-8.807,8.807A8.816,8.816,0,0,0,22.615,12.807Zm-8.807,6.606a6.606,6.606,0,1,1,6.606-6.606A6.617,6.617,0,0,1,13.807,19.413Z" transform="translate(4.807 4.807)" fill="#68b32f"/>
      <path id="Pfad_85" data-name="Pfad 85" d="M35.294,24.221l.117-.46a26.054,26.054,0,0,0,.826-6.145A17.621,17.621,0,0,0,18.615,0,17.621,17.621,0,0,0,1,17.615c0,5.877,2.691,13.473,8.01,22.576a116.567,116.567,0,0,0,7.872,11.8,2.206,2.206,0,0,0,3.483,0c.055-.068,1.376-1.768,3.248-4.507l.172-.255A14.306,14.306,0,1,0,35.3,24.218ZM18.615,46.926C14.678,41.4,5.4,27.349,5.4,17.613a13.211,13.211,0,0,1,26.422,0,21.434,21.434,0,0,1-.7,5.084l-.1.385-.2.7c-.048.172-.1.35-.152.531L30.474,25a14.316,14.316,0,0,0-9.021,17.774L21,43.45c-.145.22-.288.427-.427.641l-.392.586L19.96,45c-.5.722-.949,1.37-1.348,1.927Zm16.514,3.717a12.11,12.11,0,1,1,12.11-12.11A12.129,12.129,0,0,1,35.129,50.643Z" transform="translate(0)" fill="#68b32f"/>
      <path id="Pfad_86" data-name="Pfad 86" d="M18.752,23.6l-4.4-4.4-1.555,1.555,5.181,5.181a1.1,1.1,0,0,0,1.555,0l9.585-9.585L27.56,14.794,18.752,23.6Z" transform="translate(14.175 17.781)" fill="#68b32f"/>
    </g>
  </symbol>

  <symbol id="icon-phone-bubble" viewBox="0 0 46.774 46.779">
    <g id="phone-bubble" transform="translate(-0.001)">
      <path id="Pfad_87" data-name="Pfad 87" d="M34.73,26.588a3.87,3.87,0,0,0-2.754-1.138H31.97A3.848,3.848,0,0,0,29.216,26.6l-.975.975a3.962,3.962,0,0,0-.986,1.663,4.621,4.621,0,0,1-3.015,1.9c-2.259.444-4.787-.659-7.309-3.179S13.313,22.9,13.757,20.64a4.609,4.609,0,0,1,1.9-3,3.951,3.951,0,0,0,1.663-.986l.975-.975a3.9,3.9,0,0,0,0-5.526L11.284,3.144a3.91,3.91,0,0,0-5.518-.006L4.39,4.509A14.633,14.633,0,0,0,.357,11.835,18.055,18.055,0,0,0,.607,20,33.659,33.659,0,0,0,9.725,35.158c4.6,4.6,9.983,7.839,15.154,9.112a20.018,20.018,0,0,0,4.764.608,16.185,16.185,0,0,0,3.411-.359,14.579,14.579,0,0,0,7.333-4.039l.006-.006,1.359-1.37a3.913,3.913,0,0,0-.008-5.526l-7.017-6.993ZM31,30.327l.975-.975h0l7.005,7v.012l-.006.006-1.359,1.37c-.086.086-.17.17-.255.249l-6.761-6.761a3.828,3.828,0,0,0,.39-.889L31,30.327ZM8.514,5.9h.012L15.537,12.9v.012l-.975.975a.214.214,0,0,1-.031.012,3.945,3.945,0,0,0-.871.384L6.9,7.516c.08-.086.164-.17.244-.255L8.512,5.9Zm17.3,34.591c-4.428-1.1-9.289-4.044-13.334-8.089S5.485,23.5,4.39,19.072A12.525,12.525,0,0,1,5.682,9.06l6.463,6.463a9.032,9.032,0,0,0-2.1,3.844,9.433,9.433,0,0,0,.207,5.343,15.291,15.291,0,0,0,3.916,6.005,15.315,15.315,0,0,0,6,3.916,9.4,9.4,0,0,0,5.335.207,8.993,8.993,0,0,0,3.849-2.1L35.812,39.2a12.5,12.5,0,0,1-10,1.292Z" transform="translate(0 1.9)" fill="#68b32f"/>
      <path id="Pfad_88" data-name="Pfad 88" d="M31.893,2.789A12.942,12.942,0,0,0,23.695,0a12.942,12.942,0,0,0-8.2,2.789A8.968,8.968,0,0,0,12,9.746a9.077,9.077,0,0,0,3.953,7.309,3.649,3.649,0,0,1-1.536,2.577.953.953,0,0,0-.444,1.09.982.982,0,0,0,.949.719c2.089,0,4.721-.585,6.225-2.181a14.313,14.313,0,0,0,2.546.232,12.942,12.942,0,0,0,8.2-2.789,8.968,8.968,0,0,0,3.5-6.956,8.968,8.968,0,0,0-3.5-6.956Zm-8.2,14.753a12.222,12.222,0,0,1-2.705-.3.988.988,0,0,0-1.017.39,4.664,4.664,0,0,1-2.662,1.559,5.7,5.7,0,0,0,.622-2.62.961.961,0,0,0-.439-.811,7.289,7.289,0,0,1-3.545-6.011c0-4.3,4.374-7.8,9.746-7.8s9.746,3.5,9.746,7.8-4.374,7.8-9.746,7.8Z" transform="translate(11.388)" fill="#68b32f"/>
    </g>
  </symbol>

  <symbol id="icon-chat-bubbles" viewBox="0 0 45.552 37.96">
    <path id="bubbles2" d="M43.376,25.2a12.508,12.508,0,0,0,.344-13.571,16.906,16.906,0,0,0-4.8-5.1A26.263,26.263,0,0,0,23.725,2a26.277,26.277,0,0,0-15.2,4.525,16.884,16.884,0,0,0-4.8,5.1,12.462,12.462,0,0,0-.047,12.935,16.263,16.263,0,0,0,3.844,4.413c-.438,2.83-3,5.072-6.674,7.5A1.9,1.9,0,0,0,1.9,39.96a29.742,29.742,0,0,0,13-3.251,33.016,33.016,0,0,0,4.578-2.747c.913.131,1.839.22,2.764.268.3.011.592.023.9.03a9.907,9.907,0,0,0,1.145,1.086,12.6,12.6,0,0,0,7.983,2.716,13.827,13.827,0,0,0,2.479-.226c1.471,1.555,4.028,2.124,6.063,2.124a.956.956,0,0,0,.926-.7A.935.935,0,0,0,41.3,38.2a3.56,3.56,0,0,1-1.5-2.509,8.847,8.847,0,0,0,3.849-7.118,8.111,8.111,0,0,0-.558-2.959c.095-.142.19-.279.279-.416Zm-24.07,4.893a1.9,1.9,0,0,0-1.53.4,27.238,27.238,0,0,1-4.662,2.864,28.788,28.788,0,0,1-4.692,1.834,10.347,10.347,0,0,0,2.959-7.1,1.9,1.9,0,0,0-.784-1.536c-3.162-2.3-4.9-5.3-4.9-8.422,0-3.174,1.792-6.2,5.041-8.524A22.467,22.467,0,0,1,23.725,5.8,22.467,22.467,0,0,1,36.716,9.609c3.251,2.325,5.041,5.351,5.041,8.524a8.734,8.734,0,0,1-1.027,4.081c-.154-.142-.315-.279-.48-.416a12.6,12.6,0,0,0-7.983-2.716A12.6,12.6,0,0,0,24.283,21.8a8.734,8.734,0,0,0-3.405,6.774,7.9,7.9,0,0,0,.2,1.761c-.6-.059-1.186-.142-1.767-.243Zm19,4.335a.95.95,0,0,0-.427.79,5.435,5.435,0,0,0,.605,2.551,4.542,4.542,0,0,1-2.593-1.518.957.957,0,0,0-.776-.4.89.89,0,0,0-.213.023,11.813,11.813,0,0,1-2.635.3c-5.231,0-9.49-3.405-9.49-7.592s4.259-7.592,9.49-7.592,9.49,3.405,9.49,7.592A7.1,7.1,0,0,1,38.3,34.425Z" transform="translate(-0.001 -2)" fill="#68b32f"/>
  </symbol>

    <symbol id="icon-filter-search" viewBox="0 0 20 20">
        <path d="M16.6652 16.6691L13.168 13.1719" fill="none" stroke-width="1.5" stroke-linecap="square"/>
        <path d="M2 8C2 11.3137 4.68629 14 8 14C11.3137 14 14 11.3137 14 8C14 4.68629 11.3137 2 8 2V2C4.68639 2.00024 2.00024 4.68639 2 8" fill="none" stroke-width="1.5" stroke-linecap="square"/>
    </symbol>

    <symbol id="icon-archive-featured" viewBox="0 0 14 13">
        <path d="M6.65625 0L8.22785 4.83688H13.3136L9.19915 7.82624L10.7707 12.6631L6.65625 9.67376L2.54175 12.6631L4.11335 7.82624L-0.00114584 4.83688H5.08465L6.65625 0Z" stroke="none"/>
    </symbol>

    <symbol id="icon-archive-slider-arrow-right" viewBox="0 0 26 26">
        <rect x="25.25" y="25.25" width="24.5" height="24.5" rx="7.55537" transform="rotate(-180 25.25 25.25)" fill="none" stroke-width="1.5"/>
        <path d="M16.5618 13.0156H8.17188" fill="none" stroke-width="1.5" stroke-linecap="square"/>
        <path d="M14.4648 15.6375L17.0867 13.0156" fill="none" stroke-width="1.5" stroke-linecap="square"/>
        <path d="M14.4648 10.3984L17.0867 13.0203" fill="none" stroke-width="1.5" stroke-linecap="square"/>
    </symbol>

    <symbol id="icon-animation-plus" viewBox="0 0 14 14" fill="none" xmlns="http://www.w3.org/2000/svg">
    <path d="M7 0L8.59382 5.40618L14 7L8.59382 8.59382L7 14L5.40618 8.59382L0 7L5.40618 5.40618L7 0Z" fill="currentColor"/>
    </symbol>

    <symbol id="icon-share-linkedin" viewBox="0 0 16 16">
        <path fill-rule="evenodd" clip-rule="evenodd" d="M16 16H12.7125V10.4007C12.7125 8.86546 12.1292 8.00755 10.9141 8.00755C9.59219 8.00755 8.90156 8.90034 8.90156 10.4007V16H5.73333V5.33333H8.90156V6.77013C8.90156 6.77013 9.85417 5.00745 12.1177 5.00745C14.3802 5.00745 16 6.38907 16 9.24653V16ZM1.95365 3.93662C0.874479 3.93662 0 3.05528 0 1.96831C0 0.881341 0.874479 0 1.95365 0C3.03281 0 3.90677 0.881341 3.90677 1.96831C3.90677 3.05528 3.03281 3.93662 1.95365 3.93662ZM0.317708 16H3.62135V5.33333H0.317708V16Z" stroke="none"/>
    </symbol>

    <symbol id="icon-share-mail" viewBox="0 0 22 22">
        <path d="M6.875 8.92969L9.5578 10.5837C10.443 11.1295 11.5604 11.1295 12.4456 10.5837L15.1284 8.92969" fill="none" stroke-width="1.5" stroke-linecap="round" stroke-linejoin="round"/>
        <rect x="2.74609" y="4.57812" width="16.5069" height="12.8387" rx="2.5" fill="none" stroke-width="1.5" stroke-linecap="round" stroke-linejoin="round"/>
    </symbol>

    <symbol id="icon-share-clipboard" viewBox="0 0 18 18">
        <rect x="0.75" y="4.30469" width="12.4444" height="12.4444" rx="2" fill="none" stroke-width="1.5" stroke-linecap="round" stroke-linejoin="round"/>
        <path d="M16.2311 12.6737C16.565 12.3407 16.7524 11.8883 16.7518 11.4167V2.52778C16.7518 1.54594 15.9559 0.750001 14.9741 0.750001H6.08517C5.61356 0.74939 5.16116 0.936797 4.82812 1.27073" fill="none" stroke-width="1.5" stroke-linecap="round" stroke-linejoin="round"/>
    </symbol>

    <!-- Calendar Icon -->
    <symbol id="icon-calendar-1" viewBox="0 0 16 16">
        <path d="M12.6667 2.66665H12V1.91665C12 1.59448 11.7388 1.33331 11.4167 1.33331H11.25C10.9278 1.33331 10.6667 1.59448 10.6667 1.91665V2.66665H5.33333V1.99998C5.33333 1.63179 5.03486 1.33331 4.66667 1.33331C4.29848 1.33331 4 1.63179 4 1.99998V2.66665H3.33333C2.59333 2.66665 2.00667 3.26665 2.00667 3.99998L2 13.3333C2 14.0666 2.59333 14.6666 3.33333 14.6666H12.6667C13.4 14.6666 14 14.0666 14 13.3333V3.99998C14 3.26665 13.4 2.66665 12.6667 2.66665ZM12.6667 13.3333H3.33333V5.99998H12.6667V13.3333Z" fill="currentColor"/>
        <rect x="4.6665" y="7.33331" width="1.33333" height="1.33333" rx="0.291667" fill="currentColor"/>
        <rect x="4.6665" y="10" width="1.33333" height="1.33333" rx="0.291667" fill="currentColor"/>
        <rect x="7.3335" y="7.33331" width="1.33333" height="1.33333" rx="0.291667" fill="currentColor"/>
        <rect x="7.3335" y="10" width="1.33333" height="1.33333" rx="0.291667" fill="currentColor"/>
        <rect x="10" y="7.33331" width="1.33333" height="1.33333" rx="0.291667" fill="currentColor"/>
        <rect x="10" y="10" width="1.33333" height="1.33333" rx="0.291667" fill="currentColor"/>
    </symbol>

  <symbol id="icon-calendar-2" viewBox="0 0 24 24">
    <path d="M8 4H7.2002C6.08009 4 5.51962 4 5.0918 4.21799C4.71547 4.40973 4.40973 4.71547 4.21799 5.0918C4 5.51962 4 6.08009 4 7.2002V8M8 4H16M8 4V2M16 4H16.8002C17.9203 4 18.4796 4 18.9074 4.21799C19.2837 4.40973 19.5905 4.71547 19.7822 5.0918C20 5.5192 20 6.07899 20 7.19691V8M16 4V2M4 8V16.8002C4 17.9203 4 18.4801 4.21799 18.9079C4.40973 19.2842 4.71547 19.5905 5.0918 19.7822C5.5192 20 6.07899 20 7.19691 20H16.8031C17.921 20 18.48 20 18.9074 19.7822C19.2837 19.5905 19.5905 19.2842 19.7822 18.9079C20 18.4805 20 17.9215 20 16.8036V8M4 8H20M16 16H16.002L16.002 16.002L16 16.002V16ZM12 16H12.002L12.002 16.002L12 16.002V16ZM8 16H8.002L8.00195 16.002L8 16.002V16ZM16.002 12V12.002L16 12.002V12H16.002ZM12 12H12.002L12.002 12.002L12 12.002V12ZM8 12H8.002L8.00195 12.002L8 12.002V12Z" fill="none" stroke-width="2" stroke-linecap="round" stroke-linejoin="round"/>
  </symbol>

  <symbol id="icon-marker" viewBox="0 0 24 24">
    <path d="M5 9.92285C5 14.7747 9.24448 18.7869 11.1232 20.3252C11.3921 20.5454 11.5281 20.6568 11.7287 20.7132C11.8849 20.7572 12.1148 20.7572 12.271 20.7132C12.472 20.6567 12.6071 20.5463 12.877 20.3254C14.7557 18.7871 18.9999 14.7751 18.9999 9.9233C18.9999 8.08718 18.2625 6.32605 16.9497 5.02772C15.637 3.72939 13.8566 3 12.0001 3C10.1436 3 8.36301 3.7295 7.05025 5.02783C5.7375 6.32616 5 8.08674 5 9.92285Z" fill="none" stroke-width="2" stroke-linecap="round" stroke-linejoin="round"/>
    <path d="M10 9C10 10.1046 10.8954 11 12 11C13.1046 11 14 10.1046 14 9C14 7.89543 13.1046 7 12 7C10.8954 7 10 7.89543 10 9Z" fill="none" stroke-width="2" stroke-linecap="round" stroke-linejoin="round"/>
  </symbol>

</svg>
